<svg xmlns="http://www.w3.org/2000/svg" width="1200" height="1660" viewBox="0 0 1200 1660"> <defs> <style> .box{fill:#f0f6ff;stroke:#2563eb;stroke-width:2;rx:8;ry:8;} .title{font-family:Arial;font-size:14px;fill:#0f172a;font-weight:bold;} .subtitle{font-family:Arial;font-size:12px;fill:#334155;} .arrow{stroke:#0f172a;stroke-width:2;marker-end:url(#arrowHead);} </style> <marker id="arrowHead" markerWidth="10" markerHeight="7" refX="10" refY="3.5" orient="auto"> <polygon points="0 0, 10 3.5, 0 7" fill="#0f172a"/> </marker> <linearGradient id="grad" x1="0%" y1="0%" x2="100%" y2="0%"> <stop offset="0%" style="stop-color:#eff6ff;stop-opacity:1"/> <stop offset="100%" style="stop-color:#fff7ed;stop-opacity:1"/> </linearGradient> </defs> <rect x="20" y="50" width="180" height="40" class="box" fill="url(#grad)"></rect> <text x="30" y="72" class="title">Input</text> <text x="30" y="88" class="subtitle">(33, 15)</text> <line x1="110.0" y1="90" x2="110.0" y2="160" class="arrow"/> <rect x="20" y="160" width="180" height="40" class="box" fill="url(#grad)"></rect> <text x="30" y="182" class="title">Flatten</text> <text x="30" y="198" class="subtitle">-> 495</text> <line x1="110.0" y1="200" x2="110.0" y2="270" class="arrow"/> <rect x="20" y="270" width="180" height="40" class="box" fill="url(#grad)"></rect> <text x="30" y="292" class="title">BatchNormalization</text> <line x1="110.0" y1="310" x2="110.0" y2="380" class="arrow"/> <rect x="20" y="380" width="180" height="40" class="box" fill="url(#grad)"></rect> <text x="30" y="402" class="title">Dense</text> <text x="30" y="418" class="subtitle">512, relu</text> <line x1="110.0" y1="420" x2="110.0" y2="490" class="arrow"/> <rect x="20" y="490" width="180" height="40" class="box" fill="url(#grad)"></rect> <text x="30" y="512" class="title">Dense</text> <text x="30" y="528" class="subtitle">256, leaky_relu</text> <line x1="110.0" y1="530" x2="110.0" y2="600" class="arrow"/> <rect x="20" y="600" width="180" height="40" class="box" fill="url(#grad)"></rect> <text x="30" y="622" class="title">LayerNormalization</text> <line x1="110.0" y1="640" x2="110.0" y2="710" class="arrow"/> <rect x="20" y="710" width="180" height="40" class="box" fill="url(#grad)"></rect> <text x="30" y="732" class="title">Dense</text> <text x="30" y="748" class="subtitle">256, tanh</text> <line x1="110.0" y1="750" x2="110.0" y2="820" class="arrow"/> <rect x="20" y="820" width="180" height="40" class="box" fill="url(#grad)"></rect> <text x="30" y="842" class="title">Dropout</text> <text x="30" y="858" class="subtitle">0.3</text> <line x1="110.0" y1="860" x2="110.0" y2="930" class="arrow"/> <rect x="20" y="930" width="180" height="40" class="box" fill="url(#grad)"></rect> <text x="30" y="952" class="title">Dense</text> <text x="30" y="968" class="subtitle">256, leaky_relu</text> <line x1="110.0" y1="970" x2="110.0" y2="1040" class="arrow"/> <rect x="20" y="1040" width="180" height="40" class="box" fill="url(#grad)"></rect> <text x="30" y="1062" class="title">Dropout</text> <text x="30" y="1078" class="subtitle">0.3</text> <line x1="110.0" y1="1080" x2="110.0" y2="1150" class="arrow"/> <rect x="20" y="1150" width="180" height="40" class="box" fill="url(#grad)"></rect> <text x="30" y="1172" class="title">Dense</text> <text x="30" y="1188" class="subtitle">128, relu</text> <line x1="110.0" y1="1190" x2="110.0" y2="1260" class="arrow"/> <rect x="20" y="1260" width="180" height="40" class="box" fill="url(#grad)"></rect> <text x="30" y="1282" class="title">BatchNormalization</text> <line x1="110.0" y1="1300" x2="110.0" y2="1370" class="arrow"/> <rect x="20" y="1370" width="180" height="40" class="box" fill="url(#grad)"></rect> <text x="30" y="1392" class="title">Dense</text> <text x="30" y="1408" class="subtitle">128, swish</text> <line x1="110.0" y1="1410" x2="110.0" y2="1480" class="arrow"/> <rect x="20" y="1480" width="180" height="40" class="box" fill="url(#grad)"></rect> <text x="30" y="1502" class="title">LayerNormalization</text> <line x1="110.0" y1="1520" x2="110.0" y2="1590" class="arrow"/> <rect x="20" y="1590" width="180" height="40" class="box" fill="url(#grad)"></rect> <text x="30" y="1612" class="title">Dense</text> <text x="30" y="1628" class="subtitle">64, relu → 64, swish → 32, relu → 32, swish → Output 15</text> </svg>
